<?xml version="1.0" encoding="UTF-8" standalone="no"?>
<!DOCTYPE svg PUBLIC "-//W3C//DTD SVG 1.1//EN"
 "http://www.w3.org/Graphics/SVG/1.1/DTD/svg11.dtd">
<!-- Generated by graphviz version 2.43.0 (0)
 -->
<!-- Title: graphname Pages: 1 -->
<svg width="6600pt" height="4766pt"
 viewBox="0.00 0.00 792.00 571.97" xmlns="http://www.w3.org/2000/svg" xmlns:xlink="http://www.w3.org/1999/xlink">
<g id="graph0" class="graph" transform="scale(0.14 0.14) rotate(0) translate(4 679.42)">
<title>graphname</title>
<polygon fill="white" stroke="transparent" points="-4,4 -4,-679.42 942.32,-679.42 942.32,4 -4,4"/>
<!-- Ole -->
<g id="node1" class="node">
<title>Ole</title>
<polygon fill="white" stroke="transparent" points="526.31,-141.83 526.31,-154.83 542.31,-154.83 542.31,-141.83 526.31,-141.83"/>
<polygon fill="none" stroke="black" points="526.31,-141.83 526.31,-154.83 542.31,-154.83 542.31,-141.83 526.31,-141.83"/>
<text text-anchor="start" x="529.31" y="-148.03" font-family="Arial" font-weight="bold" font-size="6.00">Ole</text>
</g>
<!-- OleDataBase -->
<g id="node35" class="node">
<title>OleDataBase</title>
<polygon fill="white" stroke="transparent" points="435.92,-95.46 435.92,-108.46 477.92,-108.46 477.92,-95.46 435.92,-95.46"/>
<polygon fill="none" stroke="black" points="435.92,-95.46 435.92,-108.46 477.92,-108.46 477.92,-95.46 435.92,-95.46"/>
<text text-anchor="start" x="438.92" y="-101.66" font-family="Arial" font-weight="bold" font-size="6.00">OleDataBase</text>
</g>
<!-- Ole&#45;&gt;OleDataBase -->
<g id="edge56" class="edge">
<title>Ole&#45;&gt;OleDataBase</title>
<path fill="none" stroke="blue" stroke-dasharray="1,5" d="M526.02,-143.86C514.73,-137.1 494.09,-124.73 478.3,-115.27"/>
<polygon fill="none" stroke="blue" points="478.16,-115.18 470.96,-115.53 467.87,-109.01 475.07,-108.67 478.16,-115.18"/>
</g>
<!-- JsonObject -->
<g id="node50" class="node">
<title>JsonObject</title>
<polygon fill="gray" stroke="transparent" points="560.08,-62.62 560.08,-75.62 598.08,-75.62 598.08,-62.62 560.08,-62.62"/>
<polygon fill="none" stroke="black" points="560.08,-62.62 560.08,-75.62 598.08,-75.62 598.08,-62.62 560.08,-62.62"/>
<text text-anchor="start" x="563.08" y="-68.82" font-family="Arial" font-weight="bold" font-size="6.00">JsonObject</text>
</g>
<!-- Ole&#45;&gt;JsonObject -->
<g id="edge8" class="edge">
<title>Ole&#45;&gt;JsonObject</title>
<path fill="none" stroke="black" d="M538.12,-142.07C545.19,-129.56 560.5,-102.49 570.26,-85.21"/>
<polygon fill="none" stroke="black" points="573.39,-86.78 575.27,-76.35 567.3,-83.34 573.39,-86.78"/>
</g>
<!-- OleConfig -->
<g id="node2" class="node">
<title>OleConfig</title>
<polygon fill="white" stroke="transparent" points="532.61,-228.09 532.61,-241.09 567.61,-241.09 567.61,-228.09 532.61,-228.09"/>
<polygon fill="none" stroke="black" points="532.61,-228.09 532.61,-241.09 567.61,-241.09 567.61,-228.09 532.61,-228.09"/>
<text text-anchor="start" x="535.61" y="-234.29" font-family="Arial" font-weight="bold" font-size="6.00">OleConfig</text>
</g>
<!-- OleConfig&#45;&gt;Ole -->
<g id="edge9" class="edge">
<title>OleConfig&#45;&gt;Ole</title>
<path fill="none" stroke="black" d="M548.41,-228.32C546.01,-214.84 540.6,-184.29 537.21,-165.23"/>
<polygon fill="none" stroke="black" points="540.65,-164.56 535.46,-155.33 533.76,-165.79 540.65,-164.56"/>
</g>
<!-- OleDialog -->
<g id="node24" class="node">
<title>OleDialog</title>
<polygon fill="white" stroke="transparent" points="602.28,-173.44 602.28,-186.44 636.28,-186.44 636.28,-173.44 602.28,-173.44"/>
<polygon fill="none" stroke="black" points="602.28,-173.44 602.28,-186.44 636.28,-186.44 636.28,-173.44 602.28,-173.44"/>
<text text-anchor="start" x="605.28" y="-179.64" font-family="Arial" font-weight="bold" font-size="6.00">OleDialog</text>
</g>
<!-- OleConfig&#45;&gt;OleDialog -->
<g id="edge48" class="edge">
<title>OleConfig&#45;&gt;OleDialog</title>
<path fill="none" stroke="blue" stroke-dasharray="1,5" d="M558.15,-228.39C568.8,-220.03 587.31,-205.52 601.17,-194.64"/>
<polygon fill="none" stroke="blue" points="601.22,-194.6 603.47,-187.75 610.66,-187.19 608.41,-194.04 601.22,-194.6"/>
</g>
<!-- OleMenuBar -->
<g id="node30" class="node">
<title>OleMenuBar</title>
<polygon fill="white" stroke="transparent" points="593.95,-258.84 593.95,-271.84 634.95,-271.84 634.95,-258.84 593.95,-258.84"/>
<polygon fill="none" stroke="black" points="593.95,-258.84 593.95,-271.84 634.95,-271.84 634.95,-258.84 593.95,-258.84"/>
<text text-anchor="start" x="596.95" y="-265.04" font-family="Arial" font-weight="bold" font-size="6.00">OleMenuBar</text>
</g>
<!-- OleConfig&#45;&gt;OleMenuBar -->
<g id="edge39" class="edge">
<title>OleConfig&#45;&gt;OleMenuBar</title>
<path fill="none" stroke="blue" stroke-dasharray="1,5" d="M563.25,-241.61C570.84,-245.24 580.52,-249.86 589.39,-254.1"/>
<polygon fill="none" stroke="blue" points="589.5,-254.15 596.63,-253.13 600.32,-259.33 593.19,-260.35 589.5,-254.15"/>
</g>
<!-- OleToolBar -->
<g id="node33" class="node">
<title>OleToolBar</title>
<polygon fill="white" stroke="transparent" points="522.28,-323.23 522.28,-336.23 559.28,-336.23 559.28,-323.23 522.28,-323.23"/>
<polygon fill="none" stroke="black" points="522.28,-323.23 522.28,-336.23 559.28,-336.23 559.28,-323.23 522.28,-323.23"/>
<text text-anchor="start" x="525.28" y="-329.43" font-family="Arial" font-weight="bold" font-size="6.00">OleToolBar</text>
</g>
<!-- OleConfig&#45;&gt;OleToolBar -->
<g id="edge53" class="edge">
<title>OleConfig&#45;&gt;OleToolBar</title>
<path fill="none" stroke="blue" stroke-dasharray="1,5" d="M548.97,-241.63C547.57,-255.82 544.24,-289.89 542.13,-311.4"/>
<polygon fill="none" stroke="blue" points="542.1,-311.7 545.5,-318.06 540.93,-323.64 537.53,-317.28 542.1,-311.7"/>
</g>
<!-- OleDot -->
<g id="node3" class="node">
<title>OleDot</title>
<polygon fill="white" stroke="transparent" points="468.21,-59.76 468.21,-72.76 494.21,-72.76 494.21,-59.76 468.21,-59.76"/>
<polygon fill="none" stroke="black" points="468.21,-59.76 468.21,-72.76 494.21,-72.76 494.21,-59.76 468.21,-59.76"/>
<text text-anchor="start" x="471.21" y="-65.96" font-family="Arial" font-weight="bold" font-size="6.00">OleDot</text>
</g>
<!-- OleDot&#45;&gt;Ole -->
<g id="edge10" class="edge">
<title>OleDot&#45;&gt;Ole</title>
<path fill="none" stroke="black" d="M485.56,-73.48C494,-86.53 512.81,-115.6 524.44,-133.58"/>
<polygon fill="none" stroke="black" points="521.68,-135.75 530.05,-142.25 527.56,-131.95 521.68,-135.75"/>
</g>
<!-- OleFile -->
<g id="node4" class="node">
<title>OleFile</title>
<polygon fill="white" stroke="transparent" points="625.17,-143.17 625.17,-156.17 650.17,-156.17 650.17,-143.17 625.17,-143.17"/>
<polygon fill="none" stroke="black" points="625.17,-143.17 625.17,-156.17 650.17,-156.17 650.17,-143.17 625.17,-143.17"/>
<text text-anchor="start" x="628.17" y="-149.37" font-family="Arial" font-weight="bold" font-size="6.00">OleFile</text>
</g>
<!-- OleFile&#45;&gt;Ole -->
<g id="edge11" class="edge">
<title>OleFile&#45;&gt;Ole</title>
<path fill="none" stroke="black" d="M624.56,-150C606.54,-149.77 573.33,-149.33 552.61,-149.07"/>
<polygon fill="none" stroke="black" points="552.6,-145.56 542.56,-148.93 552.51,-152.56 552.6,-145.56"/>
</g>
<!-- LARVAAirTrafficControlTiles -->
<g id="node12" class="node">
<title>LARVAAirTrafficControlTiles</title>
<polygon fill="white" stroke="transparent" points="690.69,-177.58 690.69,-190.58 778.69,-190.58 778.69,-177.58 690.69,-177.58"/>
<polygon fill="none" stroke="black" points="690.69,-177.58 690.69,-190.58 778.69,-190.58 778.69,-177.58 690.69,-177.58"/>
<text text-anchor="start" x="693.69" y="-183.78" font-family="Arial" font-weight="bold" font-size="6.00">LARVAAirTrafficControlTiles</text>
</g>
<!-- OleFile&#45;&gt;LARVAAirTrafficControlTiles -->
<g id="edge42" class="edge">
<title>OleFile&#45;&gt;LARVAAirTrafficControlTiles</title>
<path fill="none" stroke="blue" stroke-dasharray="1,5" d="M649.92,-154.66C663.73,-159.54 686.24,-167.48 704.59,-173.96"/>
<polygon fill="none" stroke="blue" points="704.6,-173.96 711.59,-172.19 715.92,-177.96 708.93,-179.73 704.6,-173.96"/>
</g>
<!-- OlePassport -->
<g id="node5" class="node">
<title>OlePassport</title>
<polygon fill="white" stroke="transparent" points="557.86,-99.12 557.86,-112.12 597.86,-112.12 597.86,-99.12 557.86,-99.12"/>
<polygon fill="none" stroke="black" points="557.86,-99.12 557.86,-112.12 597.86,-112.12 597.86,-99.12 557.86,-99.12"/>
<text text-anchor="start" x="560.86" y="-105.32" font-family="Arial" font-weight="bold" font-size="6.00">OlePassport</text>
</g>
<!-- OlePassport&#45;&gt;Ole -->
<g id="edge12" class="edge">
<title>OlePassport&#45;&gt;Ole</title>
<path fill="none" stroke="black" d="M571.05,-112.79C565.08,-118.65 556.19,-127.37 548.65,-134.76"/>
<polygon fill="none" stroke="black" points="545.9,-132.56 541.21,-142.06 550.8,-137.56 545.9,-132.56"/>
</g>
<!-- OleQuery -->
<g id="node6" class="node">
<title>OleQuery</title>
<polygon fill="white" stroke="transparent" points="456.89,-182.57 456.89,-195.57 488.89,-195.57 488.89,-182.57 456.89,-182.57"/>
<polygon fill="none" stroke="black" points="456.89,-182.57 456.89,-195.57 488.89,-195.57 488.89,-182.57 456.89,-182.57"/>
<text text-anchor="start" x="459.89" y="-188.77" font-family="Arial" font-weight="bold" font-size="6.00">OleQuery</text>
</g>
<!-- OleQuery&#45;&gt;Ole -->
<g id="edge13" class="edge">
<title>OleQuery&#45;&gt;Ole</title>
<path fill="none" stroke="black" d="M482.76,-183.02C492.19,-176.77 506.58,-167.22 517.77,-159.8"/>
<polygon fill="none" stroke="black" points="519.83,-162.63 526.23,-154.19 515.96,-156.8 519.83,-162.63"/>
</g>
<!-- OleReport -->
<g id="node7" class="node">
<title>OleReport</title>
<polygon fill="white" stroke="transparent" points="420.17,-139.35 420.17,-152.35 455.17,-152.35 455.17,-139.35 420.17,-139.35"/>
<polygon fill="none" stroke="black" points="420.17,-139.35 420.17,-152.35 455.17,-152.35 455.17,-139.35 420.17,-139.35"/>
<text text-anchor="start" x="423.17" y="-145.55" font-family="Arial" font-weight="bold" font-size="6.00">OleReport</text>
</g>
<!-- OleReport&#45;&gt;Ole -->
<g id="edge14" class="edge">
<title>OleReport&#45;&gt;Ole</title>
<path fill="none" stroke="black" d="M454.98,-146.8C472.24,-147.24 498.29,-147.91 515.78,-148.35"/>
<polygon fill="none" stroke="black" points="515.77,-151.86 525.85,-148.61 515.95,-144.86 515.77,-151.86"/>
</g>
<!-- OleSensor -->
<g id="node8" class="node">
<title>OleSensor</title>
<polygon fill="white" stroke="transparent" points="522.42,-48.29 522.42,-61.29 557.42,-61.29 557.42,-48.29 522.42,-48.29"/>
<polygon fill="none" stroke="black" points="522.42,-48.29 522.42,-61.29 557.42,-61.29 557.42,-48.29 522.42,-48.29"/>
<text text-anchor="start" x="525.42" y="-54.49" font-family="Arial" font-weight="bold" font-size="6.00">OleSensor</text>
</g>
<!-- OleSensor&#45;&gt;Ole -->
<g id="edge15" class="edge">
<title>OleSensor&#45;&gt;Ole</title>
<path fill="none" stroke="black" d="M539.06,-62.02C538.26,-76.51 536.37,-111.06 535.23,-131.94"/>
<polygon fill="none" stroke="black" points="531.72,-131.98 534.67,-142.16 538.71,-132.37 531.72,-131.98"/>
</g>
<!-- OleSet -->
<g id="node9" class="node">
<title>OleSet</title>
<polygon fill="white" stroke="transparent" points="459.65,-144.19 459.65,-157.19 484.65,-157.19 484.65,-144.19 459.65,-144.19"/>
<polygon fill="none" stroke="black" points="459.65,-144.19 459.65,-157.19 484.65,-157.19 484.65,-144.19 459.65,-144.19"/>
<text text-anchor="start" x="462.65" y="-150.39" font-family="Arial" font-weight="bold" font-size="6.00">OleSet</text>
</g>
<!-- OleSet&#45;&gt;Ole -->
<g id="edge16" class="edge">
<title>OleSet&#45;&gt;Ole</title>
<path fill="none" stroke="black" d="M484.33,-150.71C493.37,-150.37 505.67,-149.91 515.8,-149.52"/>
<polygon fill="none" stroke="black" points="516.18,-153.01 526.04,-149.14 515.91,-146.02 516.18,-153.01"/>
</g>
<!-- OleTable -->
<g id="node10" class="node">
<title>OleTable</title>
<polygon fill="white" stroke="transparent" points="493.66,-80.34 493.66,-93.34 523.66,-93.34 523.66,-80.34 493.66,-80.34"/>
<polygon fill="none" stroke="black" points="493.66,-80.34 493.66,-93.34 523.66,-93.34 523.66,-80.34 493.66,-80.34"/>
<text text-anchor="start" x="496.66" y="-86.54" font-family="Arial" font-weight="bold" font-size="6.00">OleTable</text>
</g>
<!-- OleTable&#45;&gt;Ole -->
<g id="edge17" class="edge">
<title>OleTable&#45;&gt;Ole</title>
<path fill="none" stroke="black" d="M511.41,-93.92C515.24,-103.12 522.33,-120.11 527.61,-132.76"/>
<polygon fill="none" stroke="black" points="524.42,-134.23 531.5,-142.11 530.88,-131.53 524.42,-134.23"/>
</g>
<!-- OleTable&#45;&gt;OleDataBase -->
<g id="edge57" class="edge">
<title>OleTable&#45;&gt;OleDataBase</title>
<path fill="none" stroke="blue" stroke-dasharray="1,5" d="M493.42,-91.8C492.23,-92.14 491,-92.5 489.75,-92.87"/>
<polygon fill="none" stroke="blue" points="489.71,-92.88 485.07,-98.4 478.19,-96.24 482.83,-90.72 489.71,-92.88"/>
</g>
<!-- JDrawPane -->
<g id="node11" class="node">
<title>JDrawPane</title>
<polygon fill="white" stroke="transparent" points="405.52,-365.13 405.52,-378.13 442.52,-378.13 442.52,-365.13 405.52,-365.13"/>
<polygon fill="none" stroke="black" points="405.52,-365.13 405.52,-378.13 442.52,-378.13 442.52,-365.13 405.52,-365.13"/>
<text text-anchor="start" x="408.52" y="-371.33" font-family="Arial" font-weight="bold" font-size="6.00">JDrawPane</text>
</g>
<!-- JPanel -->
<g id="node45" class="node">
<title>JPanel</title>
<polygon fill="gray" stroke="transparent" points="474.73,-397.35 474.73,-410.35 499.73,-410.35 499.73,-397.35 474.73,-397.35"/>
<polygon fill="none" stroke="black" points="474.73,-397.35 474.73,-410.35 499.73,-410.35 499.73,-397.35 474.73,-397.35"/>
<text text-anchor="start" x="477.73" y="-403.55" font-family="Arial" font-weight="bold" font-size="6.00">JPanel</text>
</g>
<!-- JDrawPane&#45;&gt;JPanel -->
<g id="edge1" class="edge">
<title>JDrawPane&#45;&gt;JPanel</title>
<path fill="none" stroke="black" d="M436.31,-378.65C444.53,-382.84 455.43,-388.4 464.99,-393.27"/>
<polygon fill="none" stroke="black" points="463.46,-396.42 473.96,-397.84 466.64,-390.18 463.46,-396.42"/>
</g>
<!-- LARVACompactDash -->
<g id="node13" class="node">
<title>LARVACompactDash</title>
<polygon fill="white" stroke="transparent" points="871.82,-314.12 871.82,-327.12 938.82,-327.12 938.82,-314.12 871.82,-314.12"/>
<polygon fill="none" stroke="black" points="871.82,-314.12 871.82,-327.12 938.82,-327.12 938.82,-314.12 871.82,-314.12"/>
<text text-anchor="start" x="874.82" y="-320.32" font-family="Arial" font-weight="bold" font-size="6.00">LARVACompactDash</text>
</g>
<!-- LARVADash -->
<g id="node14" class="node">
<title>LARVADash</title>
<polygon fill="white" stroke="transparent" points="805.67,-342.88 805.67,-355.88 847.67,-355.88 847.67,-342.88 805.67,-342.88"/>
<polygon fill="none" stroke="black" points="805.67,-342.88 805.67,-355.88 847.67,-355.88 847.67,-342.88 805.67,-342.88"/>
<text text-anchor="start" x="808.67" y="-349.08" font-family="Arial" font-weight="bold" font-size="6.00">LARVADash</text>
</g>
<!-- LARVACompactDash&#45;&gt;LARVADash -->
<g id="edge23" class="edge">
<title>LARVACompactDash&#45;&gt;LARVADash</title>
<path fill="none" stroke="black" d="M887.09,-327.65C877.29,-331.25 864.92,-335.8 853.93,-339.85"/>
<polygon fill="none" stroke="black" points="852.51,-336.64 844.33,-343.38 854.92,-343.21 852.51,-336.64"/>
</g>
<!-- LARVADialog -->
<g id="node15" class="node">
<title>LARVADialog</title>
<polygon fill="white" stroke="transparent" points="695.51,0.5 695.51,-12.5 741.51,-12.5 741.51,0.5 695.51,0.5"/>
<polygon fill="none" stroke="black" points="695.51,0.5 695.51,-12.5 741.51,-12.5 741.51,0.5 695.51,0.5"/>
<text text-anchor="start" x="698.51" y="-5.7" font-family="Arial" font-weight="bold" font-size="6.00">LARVADialog</text>
</g>
<!-- JDialog -->
<g id="node46" class="node">
<title>JDialog</title>
<polygon fill="gray" stroke="transparent" points="668.77,-81.18 668.77,-94.18 696.77,-94.18 696.77,-81.18 668.77,-81.18"/>
<polygon fill="none" stroke="black" points="668.77,-81.18 668.77,-94.18 696.77,-94.18 696.77,-81.18 668.77,-81.18"/>
<text text-anchor="start" x="671.77" y="-87.38" font-family="Arial" font-weight="bold" font-size="6.00">JDialog</text>
</g>
<!-- LARVADialog&#45;&gt;JDialog -->
<g id="edge30" class="edge">
<title>LARVADialog&#45;&gt;JDialog</title>
<path fill="none" stroke="black" d="M715.59,-13.18C709.98,-25.99 697.59,-54.31 689.74,-72.25"/>
<polygon fill="none" stroke="black" points="686.44,-71.07 685.64,-81.63 692.85,-73.88 686.44,-71.07"/>
</g>
<!-- LARVAEmbeddedDash -->
<g id="node16" class="node">
<title>LARVAEmbeddedDash</title>
<polygon fill="white" stroke="transparent" points="766.89,-123.86 766.89,-136.86 838.89,-136.86 838.89,-123.86 766.89,-123.86"/>
<polygon fill="none" stroke="black" points="766.89,-123.86 766.89,-136.86 838.89,-136.86 838.89,-123.86 766.89,-123.86"/>
<text text-anchor="start" x="769.89" y="-130.06" font-family="Arial" font-weight="bold" font-size="6.00">LARVAEmbeddedDash</text>
</g>
<!-- LARVAEmbeddedDash&#45;&gt;LARVAAirTrafficControlTiles -->
<g id="edge41" class="edge">
<title>LARVAEmbeddedDash&#45;&gt;LARVAAirTrafficControlTiles</title>
<path fill="none" stroke="blue" stroke-dasharray="1,5" d="M794.53,-137.45C784.2,-145.58 766.34,-159.65 752.81,-170.31"/>
<polygon fill="none" stroke="blue" points="752.55,-170.52 750.31,-177.37 743.12,-177.94 745.36,-171.09 752.55,-170.52"/>
</g>
<!-- LARVAFrame -->
<g id="node17" class="node">
<title>LARVAFrame</title>
<polygon fill="white" stroke="transparent" points="747.14,-270.76 747.14,-283.76 792.14,-283.76 792.14,-270.76 747.14,-270.76"/>
<polygon fill="none" stroke="black" points="747.14,-270.76 747.14,-283.76 792.14,-283.76 792.14,-270.76 747.14,-270.76"/>
<text text-anchor="start" x="750.14" y="-276.96" font-family="Arial" font-weight="bold" font-size="6.00">LARVAFrame</text>
</g>
<!-- LARVAFrame&#45;&gt;LARVAAirTrafficControlTiles -->
<g id="edge40" class="edge">
<title>LARVAFrame&#45;&gt;LARVAAirTrafficControlTiles</title>
<path fill="none" stroke="blue" stroke-dasharray="1,5" d="M766.66,-271.06C761.42,-256.89 749.07,-223.47 741.34,-202.58"/>
<polygon fill="none" stroke="blue" points="741.31,-202.48 735.47,-198.24 737.14,-191.22 742.98,-195.46 741.31,-202.48"/>
</g>
<!-- LARVAFrame&#45;&gt;LARVADash -->
<g id="edge35" class="edge">
<title>LARVAFrame&#45;&gt;LARVADash</title>
<path fill="none" stroke="blue" stroke-dasharray="1,5" d="M774.45,-284.41C783.22,-295.41 801.01,-317.71 813.37,-333.21"/>
<polygon fill="none" stroke="blue" points="813.72,-333.65 820.59,-335.85 821.2,-343.03 814.33,-340.83 813.72,-333.65"/>
</g>
<!-- JFrame -->
<g id="node47" class="node">
<title>JFrame</title>
<polygon fill="gray" stroke="transparent" points="697.47,-327.58 697.47,-340.58 724.47,-340.58 724.47,-327.58 697.47,-327.58"/>
<polygon fill="none" stroke="black" points="697.47,-327.58 697.47,-340.58 724.47,-340.58 724.47,-327.58 697.47,-327.58"/>
<text text-anchor="start" x="700.47" y="-333.78" font-family="Arial" font-weight="bold" font-size="6.00">JFrame</text>
</g>
<!-- LARVAFrame&#45;&gt;JFrame -->
<g id="edge18" class="edge">
<title>LARVAFrame&#45;&gt;JFrame</title>
<path fill="none" stroke="black" d="M762.41,-284.28C753.31,-293.09 736.86,-309.02 724.9,-320.6"/>
<polygon fill="none" stroke="black" points="722.24,-318.31 717.49,-327.78 727.11,-323.34 722.24,-318.31"/>
</g>
<!-- LARVAMiniDash -->
<g id="node18" class="node">
<title>LARVAMiniDash</title>
<polygon fill="white" stroke="transparent" points="871.44,-381.75 871.44,-394.75 925.44,-394.75 925.44,-381.75 871.44,-381.75"/>
<polygon fill="none" stroke="black" points="871.44,-381.75 871.44,-394.75 925.44,-394.75 925.44,-381.75 871.44,-381.75"/>
<text text-anchor="start" x="874.44" y="-387.95" font-family="Arial" font-weight="bold" font-size="6.00">LARVAMiniDash</text>
</g>
<!-- LARVAMiniDash&#45;&gt;LARVADash -->
<g id="edge24" class="edge">
<title>LARVAMiniDash&#45;&gt;LARVADash</title>
<path fill="none" stroke="black" d="M886.27,-382.15C875.81,-376.49 860.5,-368.2 848.01,-361.44"/>
<polygon fill="none" stroke="black" points="849.6,-358.32 839.14,-356.64 846.27,-364.48 849.6,-358.32"/>
</g>
<!-- Ole3DApplication -->
<g id="node19" class="node">
<title>Ole3DApplication</title>
<polygon fill="white" stroke="transparent" points="636.77,-423.37 636.77,-436.37 691.77,-436.37 691.77,-423.37 636.77,-423.37"/>
<polygon fill="none" stroke="black" points="636.77,-423.37 636.77,-436.37 691.77,-436.37 691.77,-423.37 636.77,-423.37"/>
<text text-anchor="start" x="639.77" y="-429.57" font-family="Arial" font-weight="bold" font-size="6.00">Ole3DApplication</text>
</g>
<!-- OleApplication -->
<g id="node22" class="node">
<title>OleApplication</title>
<polygon fill="white" stroke="transparent" points="574.73,-384.35 574.73,-397.35 622.73,-397.35 622.73,-384.35 574.73,-384.35"/>
<polygon fill="none" stroke="black" points="574.73,-384.35 574.73,-397.35 622.73,-397.35 622.73,-384.35 574.73,-384.35"/>
<text text-anchor="start" x="577.73" y="-390.55" font-family="Arial" font-weight="bold" font-size="6.00">OleApplication</text>
</g>
<!-- Ole3DApplication&#45;&gt;OleApplication -->
<g id="edge25" class="edge">
<title>Ole3DApplication&#45;&gt;OleApplication</title>
<path fill="none" stroke="black" d="M652.74,-423.76C643.34,-418.12 629.6,-409.87 618.34,-403.12"/>
<polygon fill="none" stroke="black" points="619.98,-400.02 609.6,-397.88 616.38,-406.02 619.98,-400.02"/>
</g>
<!-- Ole3DPane -->
<g id="node20" class="node">
<title>Ole3DPane</title>
<polygon fill="white" stroke="transparent" points="306.24,-468.75 306.24,-481.75 343.24,-481.75 343.24,-468.75 306.24,-468.75"/>
<polygon fill="none" stroke="black" points="306.24,-468.75 306.24,-481.75 343.24,-481.75 343.24,-468.75 306.24,-468.75"/>
<text text-anchor="start" x="309.24" y="-474.95" font-family="Arial" font-weight="bold" font-size="6.00">Ole3DPane</text>
</g>
<!-- JScrollPane -->
<g id="node51" class="node">
<title>JScrollPane</title>
<polygon fill="gray" stroke="transparent" points="318.13,-554.85 318.13,-567.85 357.13,-567.85 357.13,-554.85 318.13,-554.85"/>
<polygon fill="none" stroke="black" points="318.13,-554.85 318.13,-567.85 357.13,-567.85 357.13,-554.85 318.13,-554.85"/>
<text text-anchor="start" x="321.13" y="-561.05" font-family="Arial" font-weight="bold" font-size="6.00">JScrollPane</text>
</g>
<!-- Ole3DPane&#45;&gt;JScrollPane -->
<g id="edge20" class="edge">
<title>Ole3DPane&#45;&gt;JScrollPane</title>
<path fill="none" stroke="black" d="M325.25,-482.51C327.25,-495.83 331.75,-525.86 334.6,-544.92"/>
<polygon fill="none" stroke="black" points="331.15,-545.52 336.09,-554.89 338.07,-544.48 331.15,-545.52"/>
</g>
<!-- OleAgentTile -->
<g id="node21" class="node">
<title>OleAgentTile</title>
<polygon fill="white" stroke="transparent" points="602.51,-465.51 602.51,-478.51 645.51,-478.51 645.51,-465.51 602.51,-465.51"/>
<polygon fill="none" stroke="black" points="602.51,-465.51 602.51,-478.51 645.51,-478.51 645.51,-465.51 602.51,-465.51"/>
<text text-anchor="start" x="605.51" y="-471.71" font-family="Arial" font-weight="bold" font-size="6.00">OleAgentTile</text>
</g>
<!-- OleFoldablePane -->
<g id="node27" class="node">
<title>OleFoldablePane</title>
<polygon fill="white" stroke="transparent" points="522.18,-472.35 522.18,-485.35 575.18,-485.35 575.18,-472.35 522.18,-472.35"/>
<polygon fill="none" stroke="black" points="522.18,-472.35 522.18,-485.35 575.18,-485.35 575.18,-472.35 522.18,-472.35"/>
<text text-anchor="start" x="525.18" y="-478.55" font-family="Arial" font-weight="bold" font-size="6.00">OleFoldablePane</text>
</g>
<!-- OleAgentTile&#45;&gt;OleFoldablePane -->
<g id="edge22" class="edge">
<title>OleAgentTile&#45;&gt;OleFoldablePane</title>
<path fill="none" stroke="black" d="M601.72,-474.49C596.45,-474.97 590.68,-475.49 584.93,-476.01"/>
<polygon fill="none" stroke="black" points="584.37,-472.55 574.73,-476.94 585.01,-479.52 584.37,-472.55"/>
</g>
<!-- OleApplication&#45;&gt;OleAgentTile -->
<g id="edge45" class="edge">
<title>OleApplication&#45;&gt;OleAgentTile</title>
<path fill="none" stroke="blue" stroke-dasharray="1,5" d="M600.76,-398C604.48,-410.18 612.52,-436.5 617.97,-454.37"/>
<polygon fill="none" stroke="blue" points="618.02,-454.53 623.6,-459.1 621.53,-466 615.95,-461.43 618.02,-454.53"/>
</g>
<!-- OleFrame -->
<g id="node28" class="node">
<title>OleFrame</title>
<polygon fill="white" stroke="transparent" points="605.42,-330.69 605.42,-343.69 638.42,-343.69 638.42,-330.69 605.42,-330.69"/>
<polygon fill="none" stroke="black" points="605.42,-330.69 605.42,-343.69 638.42,-343.69 638.42,-330.69 605.42,-330.69"/>
<text text-anchor="start" x="608.42" y="-336.89" font-family="Arial" font-weight="bold" font-size="6.00">OleFrame</text>
</g>
<!-- OleApplication&#45;&gt;OleFrame -->
<g id="edge6" class="edge">
<title>OleApplication&#45;&gt;OleFrame</title>
<path fill="none" stroke="black" d="M601.52,-384.77C604.78,-377.05 610.31,-363.97 614.71,-353.56"/>
<polygon fill="none" stroke="black" points="617.95,-354.9 618.62,-344.33 611.5,-352.18 617.95,-354.9"/>
</g>
<!-- OleApplication&#45;&gt;OleToolBar -->
<g id="edge52" class="edge">
<title>OleApplication&#45;&gt;OleToolBar</title>
<path fill="none" stroke="blue" stroke-dasharray="1,5" d="M592.48,-384.81C583.65,-375.58 567.26,-358.44 555.19,-345.82"/>
<polygon fill="none" stroke="blue" points="554.96,-345.58 547.93,-344.01 546.67,-336.91 553.71,-338.48 554.96,-345.58"/>
</g>
<!-- OleButton -->
<g id="node23" class="node">
<title>OleButton</title>
<polygon fill="white" stroke="transparent" points="577.83,-536.25 577.83,-549.25 613.83,-549.25 613.83,-536.25 577.83,-536.25"/>
<polygon fill="none" stroke="black" points="577.83,-536.25 577.83,-549.25 613.83,-549.25 613.83,-536.25 577.83,-536.25"/>
<text text-anchor="start" x="580.83" y="-542.45" font-family="Arial" font-weight="bold" font-size="6.00">OleButton</text>
</g>
<!-- OleButton&#45;&gt;OleAgentTile -->
<g id="edge46" class="edge">
<title>OleButton&#45;&gt;OleAgentTile</title>
<path fill="none" stroke="blue" stroke-dasharray="1,5" d="M598.38,-536.72C602.44,-526.35 610.5,-505.74 616.41,-490.66"/>
<polygon fill="none" stroke="blue" points="616.51,-490.4 614.97,-483.36 620.88,-479.23 622.42,-486.27 616.51,-490.4"/>
</g>
<!-- OleButton&#45;&gt;OleFoldablePane -->
<g id="edge59" class="edge">
<title>OleButton&#45;&gt;OleFoldablePane</title>
<path fill="none" stroke="blue" stroke-dasharray="1,5" d="M590.73,-536.41C583.52,-526.75 570.15,-508.82 560.32,-495.63"/>
<polygon fill="none" stroke="blue" points="560.27,-495.57 553.48,-493.15 553.1,-485.95 559.89,-488.36 560.27,-495.57"/>
</g>
<!-- JButton -->
<g id="node48" class="node">
<title>JButton</title>
<polygon fill="gray" stroke="transparent" points="605.58,-613.26 605.58,-626.26 635.58,-626.26 635.58,-613.26 605.58,-613.26"/>
<polygon fill="none" stroke="black" points="605.58,-613.26 605.58,-626.26 635.58,-626.26 635.58,-613.26 605.58,-613.26"/>
<text text-anchor="start" x="608.58" y="-619.46" font-family="Arial" font-weight="bold" font-size="6.00">JButton</text>
</g>
<!-- OleButton&#45;&gt;JButton -->
<g id="edge7" class="edge">
<title>OleButton&#45;&gt;JButton</title>
<path fill="none" stroke="black" d="M597.94,-549.81C601.77,-561.75 609.99,-587.32 615.4,-604.14"/>
<polygon fill="none" stroke="black" points="612.08,-605.26 618.48,-613.71 618.75,-603.11 612.08,-605.26"/>
</g>
<!-- OleDialog&#45;&gt;JDialog -->
<g id="edge31" class="edge">
<title>OleDialog&#45;&gt;JDialog</title>
<path fill="none" stroke="black" d="M623.84,-173.8C633.96,-159.11 658.46,-123.51 672.47,-103.14"/>
<polygon fill="none" stroke="black" points="675.46,-104.98 678.25,-94.76 669.69,-101.01 675.46,-104.98"/>
</g>
<!-- OleDrawPane -->
<g id="node25" class="node">
<title>OleDrawPane</title>
<polygon fill="white" stroke="transparent" points="383.29,-440.08 383.29,-453.08 426.29,-453.08 426.29,-440.08 383.29,-440.08"/>
<polygon fill="none" stroke="black" points="383.29,-440.08 383.29,-453.08 426.29,-453.08 426.29,-440.08 383.29,-440.08"/>
<text text-anchor="start" x="386.29" y="-446.28" font-family="Arial" font-weight="bold" font-size="6.00">OleDrawPane</text>
</g>
<!-- OleDrawPane&#45;&gt;Ole3DPane -->
<g id="edge43" class="edge">
<title>OleDrawPane&#45;&gt;Ole3DPane</title>
<path fill="none" stroke="blue" stroke-dasharray="1,5" d="M386.13,-453.58C376.68,-456.97 364.88,-461.19 354.13,-465.04"/>
<polygon fill="none" stroke="blue" points="353.91,-465.12 349.61,-470.91 342.61,-469.17 346.91,-463.38 353.91,-465.12"/>
</g>
<!-- OleScrollPane -->
<g id="node32" class="node">
<title>OleScrollPane</title>
<polygon fill="white" stroke="transparent" points="380.26,-522.59 380.26,-535.59 425.26,-535.59 425.26,-522.59 380.26,-522.59"/>
<polygon fill="none" stroke="black" points="380.26,-522.59 380.26,-535.59 425.26,-535.59 425.26,-522.59 380.26,-522.59"/>
<text text-anchor="start" x="383.26" y="-528.79" font-family="Arial" font-weight="bold" font-size="6.00">OleScrollPane</text>
</g>
<!-- OleDrawPane&#45;&gt;OleScrollPane -->
<g id="edge54" class="edge">
<title>OleDrawPane&#45;&gt;OleScrollPane</title>
<path fill="none" stroke="blue" stroke-dasharray="1,5" d="M404.13,-453.83C403.82,-466.16 403.17,-492.72 402.72,-510.88"/>
<polygon fill="none" stroke="blue" points="402.72,-510.98 406.57,-517.08 402.43,-522.98 398.57,-516.88 402.72,-510.98"/>
</g>
<!-- OleDrawPane&#45;&gt;JPanel -->
<g id="edge2" class="edge">
<title>OleDrawPane&#45;&gt;JPanel</title>
<path fill="none" stroke="black" d="M417.18,-440.4C429.95,-433.78 449.78,-423.5 464.99,-415.61"/>
<polygon fill="none" stroke="black" points="466.94,-418.55 474.21,-410.84 463.72,-412.33 466.94,-418.55"/>
</g>
<!-- OleFoldableList -->
<g id="node26" class="node">
<title>OleFoldableList</title>
<polygon fill="white" stroke="transparent" points="470.41,-462.45 470.41,-475.45 520.41,-475.45 520.41,-462.45 470.41,-462.45"/>
<polygon fill="none" stroke="black" points="470.41,-462.45 470.41,-475.45 520.41,-475.45 520.41,-462.45 470.41,-462.45"/>
<text text-anchor="start" x="473.41" y="-468.65" font-family="Arial" font-weight="bold" font-size="6.00">OleFoldableList</text>
</g>
<!-- OleFoldableList&#45;&gt;OleFoldablePane -->
<g id="edge60" class="edge">
<title>OleFoldableList&#45;&gt;OleFoldablePane</title>
<path fill="none" stroke="blue" stroke-dasharray="1,5" d="M520.56,-474.17C520.72,-474.2 520.88,-474.23 521.03,-474.26"/>
<polygon fill="none" stroke="blue" points="509.72,-472.13 516.35,-469.31 521.51,-474.35 514.88,-477.17 509.72,-472.13"/>
</g>
<!-- OleFoldableList&#45;&gt;JPanel -->
<g id="edge3" class="edge">
<title>OleFoldableList&#45;&gt;JPanel</title>
<path fill="none" stroke="black" d="M494.48,-462.48C493.18,-452.74 490.78,-434.74 489,-421.34"/>
<polygon fill="none" stroke="black" points="492.42,-420.52 487.63,-411.07 485.48,-421.44 492.42,-420.52"/>
</g>
<!-- OleFoldablePane&#45;&gt;JPanel -->
<g id="edge4" class="edge">
<title>OleFoldablePane&#45;&gt;JPanel</title>
<path fill="none" stroke="black" d="M542.72,-472.69C532.91,-460.71 512.06,-435.26 498.76,-419.03"/>
<polygon fill="none" stroke="black" points="501.31,-416.61 492.26,-411.1 495.89,-421.05 501.31,-416.61"/>
</g>
<!-- OleFrame&#45;&gt;OleMenuBar -->
<g id="edge38" class="edge">
<title>OleFrame&#45;&gt;OleMenuBar</title>
<path fill="none" stroke="blue" stroke-dasharray="1,5" d="M620.73,-331.06C619.65,-320.64 617.5,-300.02 615.92,-284.74"/>
<polygon fill="none" stroke="blue" points="615.9,-284.6 611.3,-279.04 614.66,-272.66 619.26,-278.22 615.9,-284.6"/>
</g>
<!-- OleFrame&#45;&gt;OleToolBar -->
<g id="edge51" class="edge">
<title>OleFrame&#45;&gt;OleToolBar</title>
<path fill="none" stroke="blue" stroke-dasharray="1,5" d="M604.61,-336.15C594.96,-335.26 582.55,-334.12 571.21,-333.07"/>
<polygon fill="none" stroke="blue" points="571.01,-333.06 564.67,-336.49 559.06,-331.96 565.4,-328.52 571.01,-333.06"/>
</g>
<!-- OleFrame&#45;&gt;JFrame -->
<g id="edge19" class="edge">
<title>OleFrame&#45;&gt;JFrame</title>
<path fill="none" stroke="black" d="M638.17,-337.11C651.79,-336.63 671.19,-335.95 686.47,-335.42"/>
<polygon fill="none" stroke="black" points="686.85,-338.91 696.72,-335.06 686.6,-331.91 686.85,-338.91"/>
</g>
<!-- OleList -->
<g id="node29" class="node">
<title>OleList</title>
<polygon fill="white" stroke="transparent" points="387,-268.14 387,-281.14 413,-281.14 413,-268.14 387,-268.14"/>
<polygon fill="none" stroke="black" points="387,-268.14 387,-281.14 413,-281.14 413,-268.14 387,-268.14"/>
<text text-anchor="start" x="390" y="-274.34" font-family="Arial" font-weight="bold" font-size="6.00">OleList</text>
</g>
<!-- JList -->
<g id="node52" class="node">
<title>JList</title>
<polygon fill="gray" stroke="transparent" points="461.21,-257.5 461.21,-270.5 481.21,-270.5 481.21,-257.5 461.21,-257.5"/>
<polygon fill="none" stroke="black" points="461.21,-257.5 461.21,-270.5 481.21,-270.5 481.21,-257.5 461.21,-257.5"/>
<text text-anchor="start" x="464.21" y="-263.7" font-family="Arial" font-weight="bold" font-size="6.00">JList</text>
</g>
<!-- OleList&#45;&gt;JList -->
<g id="edge32" class="edge">
<title>OleList&#45;&gt;JList</title>
<path fill="none" stroke="black" d="M413.06,-273.19C423.64,-271.61 438.72,-269.35 450.87,-267.54"/>
<polygon fill="none" stroke="black" points="451.62,-270.97 461,-266.03 450.59,-264.04 451.62,-270.97"/>
</g>
<!-- JMenuBar -->
<g id="node53" class="node">
<title>JMenuBar</title>
<polygon fill="gray" stroke="transparent" points="678.7,-235.87 678.7,-248.87 713.7,-248.87 713.7,-235.87 678.7,-235.87"/>
<polygon fill="none" stroke="black" points="678.7,-235.87 678.7,-248.87 713.7,-248.87 713.7,-235.87 678.7,-235.87"/>
<text text-anchor="start" x="681.7" y="-242.07" font-family="Arial" font-weight="bold" font-size="6.00">JMenuBar</text>
</g>
<!-- OleMenuBar&#45;&gt;JMenuBar -->
<g id="edge33" class="edge">
<title>OleMenuBar&#45;&gt;JMenuBar</title>
<path fill="none" stroke="black" d="M634.58,-260.04C644.76,-257.18 657.18,-253.69 668.16,-250.61"/>
<polygon fill="none" stroke="black" points="669.45,-253.88 678.13,-247.81 667.55,-247.14 669.45,-253.88"/>
</g>
<!-- OlePerformeter -->
<g id="node31" class="node">
<title>OlePerformeter</title>
<polygon fill="white" stroke="transparent" points="693.26,-478 693.26,-491 742.26,-491 742.26,-478 693.26,-478"/>
<polygon fill="none" stroke="black" points="693.26,-478 693.26,-491 742.26,-491 742.26,-478 693.26,-478"/>
<text text-anchor="start" x="696.26" y="-484.2" font-family="Arial" font-weight="bold" font-size="6.00">OlePerformeter</text>
</g>
<!-- OlePerformeter&#45;&gt;OleAgentTile -->
<g id="edge47" class="edge">
<title>OlePerformeter&#45;&gt;OleAgentTile</title>
<path fill="none" stroke="blue" stroke-dasharray="1,5" d="M692.63,-481.72C681.8,-480.27 668.89,-478.55 657.19,-476.99"/>
<polygon fill="none" stroke="blue" points="657.01,-476.97 650.53,-480.14 645.11,-475.39 651.59,-472.21 657.01,-476.97"/>
</g>
<!-- OleScrollPane&#45;&gt;JScrollPane -->
<g id="edge21" class="edge">
<title>OleScrollPane&#45;&gt;JScrollPane</title>
<path fill="none" stroke="black" d="M389.08,-536.12C380.61,-540.32 369.38,-545.88 359.53,-550.76"/>
<polygon fill="none" stroke="black" points="357.7,-547.76 350.29,-555.33 360.81,-554.03 357.7,-547.76"/>
</g>
<!-- OleToolBar&#45;&gt;JPanel -->
<g id="edge5" class="edge">
<title>OleToolBar&#45;&gt;JPanel</title>
<path fill="none" stroke="black" d="M535.53,-336.81C527.06,-348.53 509.14,-373.33 497.54,-389.39"/>
<polygon fill="none" stroke="black" points="494.57,-387.52 491.55,-397.68 500.24,-391.62 494.57,-387.52"/>
</g>
<!-- SwingTools -->
<g id="node34" class="node">
<title>SwingTools</title>
<polygon fill="white" stroke="transparent" points="344.5,-214.5 344.5,-227.5 383.5,-227.5 383.5,-214.5 344.5,-214.5"/>
<polygon fill="none" stroke="black" points="344.5,-214.5 344.5,-227.5 383.5,-227.5 383.5,-214.5 344.5,-214.5"/>
<text text-anchor="start" x="347.5" y="-220.7" font-family="Arial" font-weight="bold" font-size="6.00">SwingTools</text>
</g>
<!-- Circle3D -->
<g id="node36" class="node">
<title>Circle3D</title>
<polygon fill="white" stroke="transparent" points="69.33,-524.03 69.33,-537.03 99.33,-537.03 99.33,-524.03 69.33,-524.03"/>
<polygon fill="none" stroke="black" points="69.33,-524.03 69.33,-537.03 99.33,-537.03 99.33,-524.03 69.33,-524.03"/>
<text text-anchor="start" x="72.33" y="-530.23" font-family="Arial" font-weight="bold" font-size="6.00">Circle3D</text>
</g>
<!-- Entity3D -->
<g id="node37" class="node">
<title>Entity3D</title>
<polygon fill="white" stroke="transparent" points="150.66,-508.92 150.66,-521.92 181.66,-521.92 181.66,-508.92 150.66,-508.92"/>
<polygon fill="none" stroke="black" points="150.66,-508.92 150.66,-521.92 181.66,-521.92 181.66,-508.92 150.66,-508.92"/>
<text text-anchor="start" x="153.66" y="-515.12" font-family="Arial" font-weight="bold" font-size="6.00">Entity3D</text>
</g>
<!-- Circle3D&#45;&gt;Entity3D -->
<g id="edge26" class="edge">
<title>Circle3D&#45;&gt;Entity3D</title>
<path fill="none" stroke="black" d="M99.63,-528.19C111.03,-526.07 126.86,-523.13 140.16,-520.66"/>
<polygon fill="none" stroke="black" points="140.96,-524.07 150.15,-518.81 139.68,-517.19 140.96,-524.07"/>
</g>
<!-- Scene3D -->
<g id="node41" class="node">
<title>Scene3D</title>
<polygon fill="white" stroke="transparent" points="227.62,-478.34 227.62,-491.34 258.62,-491.34 258.62,-478.34 227.62,-478.34"/>
<polygon fill="none" stroke="black" points="227.62,-478.34 227.62,-491.34 258.62,-491.34 258.62,-478.34 227.62,-478.34"/>
<text text-anchor="start" x="230.62" y="-484.54" font-family="Arial" font-weight="bold" font-size="6.00">Scene3D</text>
</g>
<!-- Entity3D&#45;&gt;Scene3D -->
<g id="edge49" class="edge">
<title>Entity3D&#45;&gt;Scene3D</title>
<path fill="none" stroke="blue" stroke-dasharray="1,5" d="M181.23,-509.74C191.14,-505.8 204.24,-500.59 215.79,-496"/>
<polygon fill="none" stroke="blue" points="215.91,-495.95 220.01,-490.02 227.07,-491.52 222.97,-497.46 215.91,-495.95"/>
</g>
<!-- Line3D -->
<g id="node38" class="node">
<title>Line3D</title>
<polygon fill="white" stroke="transparent" points="109.77,-565.38 109.77,-578.38 135.77,-578.38 135.77,-565.38 109.77,-565.38"/>
<polygon fill="none" stroke="black" points="109.77,-565.38 109.77,-578.38 135.77,-578.38 135.77,-565.38 109.77,-565.38"/>
<text text-anchor="start" x="112.77" y="-571.58" font-family="Arial" font-weight="bold" font-size="6.00">Line3D</text>
</g>
<!-- Line3D&#45;&gt;Entity3D -->
<g id="edge27" class="edge">
<title>Line3D&#45;&gt;Entity3D</title>
<path fill="none" stroke="black" d="M128.02,-565.46C134.59,-556.81 146,-541.8 154.54,-530.56"/>
<polygon fill="none" stroke="black" points="157.36,-532.63 160.62,-522.55 151.78,-528.4 157.36,-532.63"/>
</g>
<!-- Point3D -->
<g id="node39" class="node">
<title>Point3D</title>
<polygon fill="white" stroke="transparent" points="56.02,-608.31 56.02,-621.31 85.02,-621.31 85.02,-608.31 56.02,-608.31"/>
<polygon fill="none" stroke="black" points="56.02,-608.31 56.02,-621.31 85.02,-621.31 85.02,-608.31 56.02,-608.31"/>
<text text-anchor="start" x="59.02" y="-614.51" font-family="Arial" font-weight="bold" font-size="6.00">Point3D</text>
</g>
<!-- Point3D&#45;&gt;Circle3D -->
<g id="edge58" class="edge">
<title>Point3D&#45;&gt;Circle3D</title>
<path fill="none" stroke="blue" stroke-dasharray="1,5" d="M71.14,-608.69C73.27,-596.14 77.98,-568.45 81.15,-549.76"/>
<polygon fill="none" stroke="blue" points="81.17,-549.68 78.23,-543.1 83.18,-537.85 86.12,-544.44 81.17,-549.68"/>
</g>
<!-- Point3D&#45;&gt;Line3D -->
<g id="edge37" class="edge">
<title>Point3D&#45;&gt;Line3D</title>
<path fill="none" stroke="blue" stroke-dasharray="1,5" d="M78.26,-608.6C85.5,-602.71 96.28,-593.93 105.41,-586.5"/>
<polygon fill="none" stroke="blue" points="105.45,-586.47 107.58,-579.58 114.75,-578.9 112.63,-585.79 105.45,-586.47"/>
</g>
<!-- Polygon3D -->
<g id="node40" class="node">
<title>Polygon3D</title>
<polygon fill="white" stroke="transparent" points="135.89,-602.62 135.89,-615.62 172.89,-615.62 172.89,-602.62 135.89,-602.62"/>
<polygon fill="none" stroke="black" points="135.89,-602.62 135.89,-615.62 172.89,-615.62 172.89,-602.62 135.89,-602.62"/>
<text text-anchor="start" x="138.89" y="-608.82" font-family="Arial" font-weight="bold" font-size="6.00">Polygon3D</text>
</g>
<!-- Point3D&#45;&gt;Polygon3D -->
<g id="edge50" class="edge">
<title>Point3D&#45;&gt;Polygon3D</title>
<path fill="none" stroke="blue" stroke-dasharray="1,5" d="M84.63,-614.32C95.3,-613.59 110.15,-612.59 123.36,-611.69"/>
<polygon fill="none" stroke="blue" points="123.37,-611.69 129.09,-607.29 135.34,-610.88 129.63,-615.28 123.37,-611.69"/>
</g>
<!-- Vector3D -->
<g id="node43" class="node">
<title>Vector3D</title>
<polygon fill="white" stroke="transparent" points="0,-661.92 0,-674.92 32,-674.92 32,-661.92 0,-661.92"/>
<polygon fill="none" stroke="black" points="0,-661.92 0,-674.92 32,-674.92 32,-661.92 0,-661.92"/>
<text text-anchor="start" x="3" y="-668.12" font-family="Arial" font-weight="bold" font-size="6.00">Vector3D</text>
</g>
<!-- Point3D&#45;&gt;Vector3D -->
<g id="edge34" class="edge">
<title>Point3D&#45;&gt;Vector3D</title>
<path fill="none" stroke="blue" stroke-dasharray="1,5" d="M63.39,-621.88C55.46,-629.76 41.9,-643.21 31.32,-653.72"/>
<polygon fill="none" stroke="blue" points="31.19,-653.84 29.75,-660.91 22.68,-662.29 24.12,-655.23 31.19,-653.84"/>
</g>
<!-- Polygon3D&#45;&gt;Entity3D -->
<g id="edge28" class="edge">
<title>Polygon3D&#45;&gt;Entity3D</title>
<path fill="none" stroke="black" d="M154.74,-602.88C156.57,-588.3 160.95,-553.43 163.57,-532.55"/>
<polygon fill="none" stroke="black" points="167.05,-532.96 164.82,-522.6 160.1,-532.09 167.05,-532.96"/>
</g>
<!-- Scene3D&#45;&gt;Ole3DPane -->
<g id="edge44" class="edge">
<title>Scene3D&#45;&gt;Ole3DPane</title>
<path fill="none" stroke="blue" stroke-dasharray="1,5" d="M258.35,-483.49C268.29,-482.33 281.46,-480.78 293.41,-479.37"/>
<polygon fill="none" stroke="blue" points="293.78,-479.33 299.27,-474.66 305.7,-477.93 300.2,-482.6 293.78,-479.33"/>
</g>
<!-- String3D -->
<g id="node42" class="node">
<title>String3D</title>
<polygon fill="white" stroke="transparent" points="92.83,-441.96 92.83,-454.96 123.83,-454.96 123.83,-441.96 92.83,-441.96"/>
<polygon fill="none" stroke="black" points="92.83,-441.96 92.83,-454.96 123.83,-454.96 123.83,-441.96 92.83,-441.96"/>
<text text-anchor="start" x="95.83" y="-448.16" font-family="Arial" font-weight="bold" font-size="6.00">String3D</text>
</g>
<!-- String3D&#45;&gt;Entity3D -->
<g id="edge29" class="edge">
<title>String3D&#45;&gt;Entity3D</title>
<path fill="none" stroke="black" d="M113.58,-455.63C122.76,-466.26 140.93,-487.29 153.19,-501.49"/>
<polygon fill="none" stroke="black" points="150.74,-504.01 159.92,-509.29 156.04,-499.43 150.74,-504.01"/>
</g>
<!-- Map2DColor -->
<g id="node44" class="node">
<title>Map2DColor</title>
<polygon fill="white" stroke="transparent" points="772.45,-431.82 772.45,-444.82 814.45,-444.82 814.45,-431.82 772.45,-431.82"/>
<polygon fill="none" stroke="black" points="772.45,-431.82 772.45,-444.82 814.45,-444.82 814.45,-431.82 772.45,-431.82"/>
<text text-anchor="start" x="775.45" y="-438.02" font-family="Arial" font-weight="bold" font-size="6.00">Map2DColor</text>
</g>
<!-- Map2DColor&#45;&gt;LARVADash -->
<g id="edge36" class="edge">
<title>Map2DColor&#45;&gt;LARVADash</title>
<path fill="none" stroke="blue" stroke-dasharray="1,5" d="M795.94,-432.13C800.97,-418.68 812.46,-387.92 819.88,-368.06"/>
<polygon fill="none" stroke="blue" points="819.94,-367.88 818.29,-360.86 824.14,-356.64 825.79,-363.66 819.94,-367.88"/>
</g>
<!-- Map2DColor&#45;&gt;OlePerformeter -->
<g id="edge55" class="edge">
<title>Map2DColor&#45;&gt;OlePerformeter</title>
<path fill="none" stroke="blue" stroke-dasharray="1,5" d="M782.53,-445.43C771.1,-452.36 752.87,-463.41 738.57,-472.08"/>
<polygon fill="none" stroke="blue" points="738.42,-472.17 735.36,-478.7 728.16,-478.39 731.22,-471.86 738.42,-472.17"/>
</g>
<!-- JPopupMenu -->
<g id="node49" class="node">
<title>JPopupMenu</title>
<polygon fill="gray" stroke="transparent" points="301,-386.5 301,-399.5 345,-399.5 345,-386.5 301,-386.5"/>
<polygon fill="none" stroke="black" points="301,-386.5 301,-399.5 345,-399.5 345,-386.5 301,-386.5"/>
<text text-anchor="start" x="304" y="-392.7" font-family="Arial" font-weight="bold" font-size="6.00">JPopupMenu</text>
</g>
</g>
</svg>
